<svg xmlns="http://www.w3.org/2000/svg" xmlns:xlink="http://www.w3.org/1999/xlink" id="processonSvg1000" viewBox="188.25 133.0 759.75 576.0" width="759.75" height="576.0"><defs id="ProcessOnDefs1001"><marker id="ProcessOnMarker1026" markerUnits="userSpaceOnUse" orient="auto" markerWidth="16.23606797749979" markerHeight="10.550836550532098" viewBox="-1.0 -1.3763819204711736 16.23606797749979 10.550836550532098" refX="-1.0" refY="3.8990363547948754"><path id="ProcessOnPath1027" d="M12.0 3.8990363547948754L0.0 7.798072709589751V0.0Z" stroke="#323232" stroke-width="2.0" fill="#323232" transform="matrix(1.0,0.0,0.0,1.0,0.0,0.0)"/></marker><marker id="ProcessOnMarker1030" markerUnits="userSpaceOnUse" orient="auto" markerWidth="16.23606797749979" markerHeight="10.550836550532098" viewBox="-1.0 -1.3763819204711736 16.23606797749979 10.550836550532098" refX="-1.0" refY="3.8990363547948754"><path id="ProcessOnPath1031" d="M12.0 3.8990363547948754L0.0 7.798072709589751V0.0Z" stroke="#323232" stroke-width="2.0" fill="#323232" transform="matrix(1.0,0.0,0.0,1.0,0.0,0.0)"/></marker><marker id="ProcessOnMarker1034" markerUnits="userSpaceOnUse" orient="auto" markerWidth="16.23606797749979" markerHeight="10.550836550532098" viewBox="-1.0 -1.3763819204711736 16.23606797749979 10.550836550532098" refX="-1.0" refY="3.8990363547948754"><path id="ProcessOnPath1035" d="M12.0 3.8990363547948754L0.0 7.798072709589751V0.0Z" stroke="#323232" stroke-width="2.0" fill="#323232" transform="matrix(1.0,0.0,0.0,1.0,0.0,0.0)"/></marker><marker id="ProcessOnMarker1052" markerUnits="userSpaceOnUse" orient="auto" markerWidth="16.23606797749979" markerHeight="10.550836550532098" viewBox="-1.0 -1.3763819204711736 16.23606797749979 10.550836550532098" refX="-1.0" refY="3.8990363547948754"><path id="ProcessOnPath1053" d="M12.0 3.8990363547948754L0.0 7.798072709589751V0.0Z" stroke="#323232" stroke-width="2.0" fill="#323232" transform="matrix(1.0,0.0,0.0,1.0,0.0,0.0)"/></marker><marker id="ProcessOnMarker1056" markerUnits="userSpaceOnUse" orient="auto" markerWidth="16.23606797749979" markerHeight="10.550836550532098" viewBox="-1.0 -1.3763819204711736 16.23606797749979 10.550836550532098" refX="-1.0" refY="3.8990363547948754"><path id="ProcessOnPath1057" d="M12.0 3.8990363547948754L0.0 7.798072709589751V0.0Z" stroke="#323232" stroke-width="2.0" fill="#323232" transform="matrix(1.0,0.0,0.0,1.0,0.0,0.0)"/></marker><marker id="ProcessOnMarker1060" markerUnits="userSpaceOnUse" orient="auto" markerWidth="16.23606797749979" markerHeight="10.550836550532098" viewBox="-1.0 -1.3763819204711736 16.23606797749979 10.550836550532098" refX="-1.0" refY="3.8990363547948754"><path id="ProcessOnPath1061" d="M12.0 3.8990363547948754L0.0 7.798072709589751V0.0Z" stroke="#323232" stroke-width="2.0" fill="#323232" transform="matrix(1.0,0.0,0.0,1.0,0.0,0.0)"/></marker><marker id="ProcessOnMarker1068" markerUnits="userSpaceOnUse" orient="auto" markerWidth="16.23606797749979" markerHeight="10.550836550532098" viewBox="-1.0 -1.3763819204711736 16.23606797749979 10.550836550532098" refX="15.23606797749979" refY="3.8990363547948754"><path id="ProcessOnPath1069" d="M12.0 3.8990363547948754L0.0 7.798072709589751V0.0Z" stroke="#323232" stroke-width="2.0" fill="#323232" transform="matrix(-1.0,1.2246467991473532E-16,-1.2246467991473532E-16,-1.0,14.23606797749979,7.798072709589751)"/></marker><marker id="ProcessOnMarker1070" markerUnits="userSpaceOnUse" orient="auto" markerWidth="16.23606797749979" markerHeight="10.550836550532098" viewBox="-1.0 -1.3763819204711736 16.23606797749979 10.550836550532098" refX="-1.0" refY="3.8990363547948754"><path id="ProcessOnPath1071" d="M12.0 3.8990363547948754L0.0 7.798072709589751V0.0Z" stroke="#323232" stroke-width="2.0" fill="#323232" transform="matrix(1.0,0.0,0.0,1.0,0.0,0.0)"/></marker><marker id="ProcessOnMarker1074" markerUnits="userSpaceOnUse" orient="auto" markerWidth="16.23606797749979" markerHeight="10.550836550532098" viewBox="-1.0 -1.3763819204711736 16.23606797749979 10.550836550532098" refX="15.23606797749979" refY="3.8990363547948754"><path id="ProcessOnPath1075" d="M12.0 3.8990363547948754L0.0 7.798072709589751V0.0Z" stroke="#323232" stroke-width="2.0" fill="#323232" transform="matrix(-1.0,1.2246467991473532E-16,-1.2246467991473532E-16,-1.0,14.23606797749979,7.798072709589751)"/></marker><marker id="ProcessOnMarker1076" markerUnits="userSpaceOnUse" orient="auto" markerWidth="16.23606797749979" markerHeight="10.550836550532098" viewBox="-1.0 -1.3763819204711736 16.23606797749979 10.550836550532098" refX="-1.0" refY="3.8990363547948754"><path id="ProcessOnPath1077" d="M12.0 3.8990363547948754L0.0 7.798072709589751V0.0Z" stroke="#323232" stroke-width="2.0" fill="#323232" transform="matrix(1.0,0.0,0.0,1.0,0.0,0.0)"/></marker></defs><g id="ProcessOnG1002"><path id="ProcessOnPath1003" d="M188.25 133.0H948.0V709.0H188.25V133.0Z" fill="none"/><g id="ProcessOnG1004"><g id="ProcessOnG1005" transform="matrix(1.0,0.0,0.0,1.0,571.5,153.0)" opacity="1.0"><path id="ProcessOnPath1006" d="M0.0 50.0C0.0 -16.666666666666668 100.0 -16.666666666666668 100.0 50.0C100.0 116.66666666666667 0.0 116.66666666666667 0.0 50.0Z" stroke="#323232" stroke-width="2.0" stroke-dasharray="none" opacity="1.0" fill="#ffffff"/><g id="ProcessOnG1007" transform="matrix(1.0,0.0,0.0,1.0,10.0,37.5)"><text id="ProcessOnText1008" fill="#000000" font-size="20" x="39.0" y="20.5" font-family="微软雅黑" font-weight="normal" font-style="normal" text-decoration="none" family="微软雅黑" text-anchor="middle" size="20">Client</text></g></g><g id="ProcessOnG1009" transform="matrix(1.0,0.0,0.0,1.0,314.0,337.0)" opacity="1.0"><path id="ProcessOnPath1010" d="M0.0 4.0Q0.0 0.0 4.0 0.0L169.0 0.0Q173.0 0.0 173.0 4.0L173.0 84.0Q173.0 88.0 169.0 88.0L4.0 88.0Q0.0 88.0 0.0 84.0Z" stroke="#323232" stroke-width="2.0" stroke-dasharray="none" opacity="1.0" fill="#ffffff"/><g id="ProcessOnG1011" transform="matrix(1.0,0.0,0.0,1.0,10.0,19.0)"><text id="ProcessOnText1012" fill="#000000" font-size="20" x="75.5" y="20.5" font-family="微软雅黑" font-weight="normal" font-style="normal" text-decoration="none" family="微软雅黑" text-anchor="middle" size="20">Prediction </text><text id="ProcessOnText1013" fill="#000000" font-size="20" x="75.5" y="45.5" font-family="微软雅黑" font-weight="normal" font-style="normal" text-decoration="none" family="微软雅黑" text-anchor="middle" size="20">Service</text></g></g><g id="ProcessOnG1014" transform="matrix(1.0,0.0,0.0,1.0,755.0,337.0)" opacity="1.0"><path id="ProcessOnPath1015" d="M0.0 4.0Q0.0 0.0 4.0 0.0L169.0 0.0Q173.0 0.0 173.0 4.0L173.0 84.0Q173.0 88.0 169.0 88.0L4.0 88.0Q0.0 88.0 0.0 84.0Z" stroke="#323232" stroke-width="2.0" stroke-dasharray="none" opacity="1.0" fill="#ffffff"/><g id="ProcessOnG1016" transform="matrix(1.0,0.0,0.0,1.0,10.0,19.0)"><text id="ProcessOnText1017" fill="#000000" font-size="20" x="75.5" y="20.5" font-family="微软雅黑" font-weight="normal" font-style="normal" text-decoration="none" family="微软雅黑" text-anchor="middle" size="20">Account </text><text id="ProcessOnText1018" fill="#000000" font-size="20" x="75.5" y="45.5" font-family="微软雅黑" font-weight="normal" font-style="normal" text-decoration="none" family="微软雅黑" text-anchor="middle" size="20">Service</text></g></g><g id="ProcessOnG1019" transform="matrix(1.0,0.0,0.0,1.0,535.0,337.0)" opacity="1.0"><path id="ProcessOnPath1020" d="M0.0 4.0Q0.0 0.0 4.0 0.0L169.0 0.0Q173.0 0.0 173.0 4.0L173.0 84.0Q173.0 88.0 169.0 88.0L4.0 88.0Q0.0 88.0 0.0 84.0Z" stroke="#323232" stroke-width="2.0" stroke-dasharray="none" opacity="1.0" fill="#ffffff"/><g id="ProcessOnG1021" transform="matrix(1.0,0.0,0.0,1.0,10.0,19.0)"><text id="ProcessOnText1022" fill="#000000" font-size="20" x="75.5" y="20.5" font-family="微软雅黑" font-weight="normal" font-style="normal" text-decoration="none" family="微软雅黑" text-anchor="middle" size="20">League Info </text><text id="ProcessOnText1023" fill="#000000" font-size="20" x="75.5" y="45.5" font-family="微软雅黑" font-weight="normal" font-style="normal" text-decoration="none" family="微软雅黑" text-anchor="middle" size="20">Service</text></g></g><g id="ProcessOnG1024"><path id="ProcessOnPath1025" d="M621.5 253.0L621.5 295.0L621.5 295.0L621.5 321.7639320225002" stroke="#323232" stroke-width="2.0" stroke-dasharray="none" fill="none" marker-end="url(#ProcessOnMarker1026)"/></g><g id="ProcessOnG1028"><path id="ProcessOnPath1029" d="M671.5 203.0C758.0849871513532 203.0 841.5 250.41501284864677 841.5 321.7639320225002" stroke="#323232" stroke-width="2.0" stroke-dasharray="none" fill="none" marker-end="url(#ProcessOnMarker1030)"/></g><g id="ProcessOnG1032"><path id="ProcessOnPath1033" d="M571.5 203.0C484.6005178381367 203.0 400.5 250.10051783813668 400.5 321.7639320225002" stroke="#323232" stroke-width="2.0" stroke-dasharray="none" fill="none" marker-end="url(#ProcessOnMarker1034)"/></g><g id="ProcessOnG1036" transform="matrix(1.0,0.0,0.0,1.0,761.75,511.0)" opacity="1.0"><path id="ProcessOnPath1037" d="M23.925 0.0L146.16666666666666 0.0C163.13636363636363 0.0 163.13636363636363 80.0 146.16666666666666 80.0L23.925 80.0C-7.9750000000000005 80.0 -7.9750000000000005 0.0 23.925 0.0ZM146.16666666666666 0.0C129.5 0.0 129.5 80.0 146.16666666666666 80.0C129.5 80.0 129.5 0.0 146.16666666666666 0.0" stroke="#323232" stroke-width="2.0" stroke-dasharray="none" opacity="1.0" fill="#ffffff"/><g id="ProcessOnG1038" transform="matrix(1.0,0.0,0.0,1.0,0.0,27.5)"><text id="ProcessOnText1039" fill="#000000" font-size="20" x="62.800000000000004" y="20.5" font-family="微软雅黑" font-weight="normal" font-style="normal" text-decoration="none" family="微软雅黑" text-anchor="middle" size="20">Account DB</text></g></g><g id="ProcessOnG1040" transform="matrix(1.0,0.0,0.0,1.0,431.75,511.0)" opacity="1.0"><path id="ProcessOnPath1041" d="M23.925 0.0L146.16666666666666 0.0C163.13636363636363 0.0 163.13636363636363 80.0 146.16666666666666 80.0L23.925 80.0C-7.9750000000000005 80.0 -7.9750000000000005 0.0 23.925 0.0ZM146.16666666666666 0.0C129.5 0.0 129.5 80.0 146.16666666666666 80.0C129.5 80.0 129.5 0.0 146.16666666666666 0.0" stroke="#323232" stroke-width="2.0" stroke-dasharray="none" opacity="1.0" fill="#ffffff"/><g id="ProcessOnG1042" transform="matrix(1.0,0.0,0.0,1.0,0.0,15.0)"><text id="ProcessOnText1043" fill="#000000" font-size="20" x="62.800000000000004" y="20.5" font-family="微软雅黑" font-weight="normal" font-style="normal" text-decoration="none" family="微软雅黑" text-anchor="middle" size="20">League Info </text><text id="ProcessOnText1044" fill="#000000" font-size="20" x="62.800000000000004" y="45.5" font-family="微软雅黑" font-weight="normal" font-style="normal" text-decoration="none" family="微软雅黑" text-anchor="middle" size="20">DB</text></g></g><g id="ProcessOnG1045" transform="matrix(1.0,0.0,0.0,1.0,208.5,609.0)" opacity="1.0"><path id="ProcessOnPath1046" d="M23.925 0.0L146.16666666666666 0.0C163.13636363636363 0.0 163.13636363636363 80.0 146.16666666666666 80.0L23.925 80.0C-7.9750000000000005 80.0 -7.9750000000000005 0.0 23.925 0.0ZM146.16666666666666 0.0C129.5 0.0 129.5 80.0 146.16666666666666 80.0C129.5 80.0 129.5 0.0 146.16666666666666 0.0" stroke="#323232" stroke-width="2.0" stroke-dasharray="none" opacity="1.0" fill="#ffffff"/><g id="ProcessOnG1047" transform="matrix(1.0,0.0,0.0,1.0,0.0,15.0)"><text id="ProcessOnText1048" fill="#000000" font-size="20" x="62.800000000000004" y="20.5" font-family="微软雅黑" font-weight="normal" font-style="normal" text-decoration="none" family="微软雅黑" text-anchor="middle" size="20">Prediction </text><text id="ProcessOnText1049" fill="#000000" font-size="20" x="62.800000000000004" y="45.5" font-family="微软雅黑" font-weight="normal" font-style="normal" text-decoration="none" family="微软雅黑" text-anchor="middle" size="20">DB</text></g></g><g id="ProcessOnG1050"><path id="ProcessOnPath1051" d="M841.5 425.0C841.5 459.4 841.5 476.6 841.5 495.7639320225002" stroke="#323232" stroke-width="2.0" stroke-dasharray="none" fill="none" marker-end="url(#ProcessOnMarker1052)"/></g><g id="ProcessOnG1054"><path id="ProcessOnPath1055" d="M621.5 425.0C621.5 480.8512309622626 511.5 455.1487690377374 511.5 495.7639320225002" stroke="#323232" stroke-width="2.0" stroke-dasharray="none" fill="none" marker-end="url(#ProcessOnMarker1056)"/></g><g id="ProcessOnG1058"><path id="ProcessOnPath1059" d="M400.5 425.0C400.5 481.16689416373316 511.5 454.83310583626684 511.5 495.7639320225002" stroke="#323232" stroke-width="2.0" stroke-dasharray="none" fill="none" marker-end="url(#ProcessOnMarker1060)"/></g><g id="ProcessOnG1062" transform="matrix(1.0,0.0,0.0,1.0,208.25,569.0)" opacity="1.0"><path id="ProcessOnPath1063" d="M0.0 0.0L160.0 0.0L160.0 40.0L0.0 40.0Z" stroke="none" stroke-width="0.0" stroke-dasharray="none" opacity="1.0" fill="none"/><g id="ProcessOnG1064" transform="matrix(1.0,0.0,0.0,1.0,0.0,7.5)"><text id="ProcessOnText1065" fill="#000000" font-size="20" x="79.0" y="20.5" font-family="微软雅黑" font-weight="normal" font-style="normal" text-decoration="none" family="微软雅黑" text-anchor="middle" size="20">???</text></g></g><g id="ProcessOnG1066"><path id="ProcessOnPath1067" d="M502.2360679774998 381.0C506.2 381.0 515.8 381.0 519.7639320225002 381.0" stroke="#323232" stroke-width="2.0" stroke-dasharray="none" fill="none" marker-start="url(#ProcessOnMarker1068)" marker-end="url(#ProcessOnMarker1070)"/></g><g id="ProcessOnG1072"><path id="ProcessOnPath1073" d="M723.2360679774998 381.0C726.8 381.0 736.2 381.0 739.7639320225002 381.0" stroke="#323232" stroke-width="2.0" stroke-dasharray="none" fill="none" marker-start="url(#ProcessOnMarker1074)" marker-end="url(#ProcessOnMarker1076)"/></g></g></g></svg>